# xmcd CD database file generated by OrangeCD 6.2
#
# Track frame offsets:
#	150
#	24357
#	39587
#	60832
#	78945
#	108120
#	119520
#	141507
#	159645
#	190620
#	217695
#	242347
#	265282
#
# Disc length: 3760 seconds
#
# Revision: 5
# Processed by: cddbd v1.5.2PL0 Copyright (c) Steve Scherf et al.
# Submitted via: OrangeCD 6.2
#
DISCID=9f0eae0d
DTITLE=Charles Brown - Drifting Blues
DYEAR=1996
DGENRE=Blues
TTITLE0=Driftin' Blues
TTITLE1=Bad Bad Whisky
TTITLE2=Early In The Morning
TTITLE3=Don't Drive Me Away
TTITLE4=Not So Far
TTITLE5=Joyce's Boogie
TTITLE6=Merry Christmas Baby
TTITLE7=Seven Long Days
TTITLE8=A Virus Called The Blues
TTITLE9=Be Sharp You'll See
TTITLE10=I Stepped In Quicksand
TTITLE11=Black Night
TTITLE12=Just A Lucky So and So
EXTD=
EXTT0=
EXTT1=
EXTT2=
EXTT3=
EXTT4=
EXTT5=
EXTT6=
EXTT7=
EXTT8=
EXTT9=
EXTT10=
EXTT11=
EXTT12=
PLAYORDER=
